<svg xmlns="http://www.w3.org/2000/svg" width="768.9" height="158.96" viewBox="0 0 768.9 158.96"><defs><style>.cls-1{fill:#beef60;}.cls-2{fill:#615f60;}</style></defs><title>rusty-raygun-logo-horz</title><g id="Layer_2" data-name="Layer 2"><g id="Layer_1-2" data-name="Layer 1"><g id="Layer_2-2" data-name="Layer 2"><g id="Layer_1-2-2" data-name="Layer 1-2"><path class="cls-1" d="M721.72,81.28c-.12,2.47.14,4.59.21,6.72.42,14.55.07,29.11.2,43.66,0,.89-.23,1.17-1.14,1.16q-9.36-.06-18.72,0c-.94,0-1.12-.34-1.12-1.18V42.13c0-1,.3-1.21,1.23-1.2H721.1a1.72,1.72,0,0,1,1.8,1.14q12.47,25,25,50a2.67,2.67,0,0,0,.76,1c-.11-1.58-.22-3.17-.32-4.75-.13-2-.35-3.9-.36-5.86V42.27c0-1.08.29-1.32,1.33-1.32q9.12.09,18.24,0c1.16,0,1.35.37,1.35,1.42v89.14c0,1-.22,1.36-1.31,1.35-6.32-.06-12.64-.05-19,0a1.62,1.62,0,0,1-1.7-1.1q-12.21-24.63-24.48-49.25C722.21,82.16,722,81.87,721.72,81.28Z"/><path class="cls-1" d="M598.43,81.27h14.64c.78,0,1.13.14,1.12,1-.06,5.68.07,11.36-.1,17-.23,7.34-1.59,14.45-5.36,20.9-5,8.56-12.4,13.46-22.26,14.56-6.42.71-12.71.19-18.66-2.5-7.69-3.47-12.66-9.55-16-17.1A61.19,61.19,0,0,1,547.22,96a101.09,101.09,0,0,1-.2-16.87c.66-9.17,2.3-18.08,7.2-26.07,5.27-8.6,13.06-13.24,23-14.36,5.74-.64,11.41-.44,16.85,1.83,6.15,2.58,10.54,7.09,13.91,12.71a48.65,48.65,0,0,1,2.73,5.33c.27.61.16.92-.47,1.18Q601,63.5,591.85,67.31a.74.74,0,0,1-1-.18.68.68,0,0,1-.1-.21c-.88-1.57-2-3-3-4.48-3.19-4.61-11.76-4.73-15,1.38a26.93,26.93,0,0,0-2.7,8.83,98.09,98.09,0,0,0-.9,17.21c.15,5.47.48,11,2.36,16.17,1.08,3,2.65,5.72,5.72,7.06,4.75,2.08,11.22,1,13.66-5.36a27.37,27.37,0,0,0,1.47-7.61c.07-.8-.24-.94-.94-.93h-7.67c-.92,0-1.16-.27-1.15-1.16V82.44c0-.94.26-1.23,1.22-1.22C588.67,81.29,593.55,81.27,598.43,81.27Z"/><path class="cls-1" d="M646.81,74.55v31.19c0,3.28.89,6.2,3.7,8.17a8.9,8.9,0,0,0,13.86-6,19.9,19.9,0,0,0,.27-3.45V42.31c0-1.18.32-1.45,1.46-1.44,6.24.06,12.47,0,18.71,0,1,0,1.2.24,1.2,1.19v60.59a49.34,49.34,0,0,1-2.37,16c-2.89,8.41-8.49,13.85-17.37,15.57a51.94,51.94,0,0,1-21.75-.23c-8.62-2-14-7.31-16.58-15.73a58.89,58.89,0,0,1-2.41-15.94c-.32-20.11,0-40.23-.15-60.34,0-.88.23-1.17,1.14-1.16q9.6.06,19.2,0c1,0,1.18.33,1.17,1.23Q646.79,58.36,646.81,74.55Z"/><path class="cls-1" d="M20.92,91.08v40.48c0,1-.23,1.27-1.25,1.27q-9.23-.08-18.47,0c-.95,0-1.2-.24-1.2-1.19Q0,86.88,0,42.12c0-.95.26-1.2,1.2-1.19,8.08,0,16.16-.08,24.24,0,7.35.12,14.36,1.64,20.41,6.18,6.31,4.78,9.44,11.22,10.15,19a28,28,0,0,1-4.57,18.34,19.43,19.43,0,0,1-7,6.42c-.73.4-.89.71-.55,1.55q7.88,19.44,15.66,38.89c.6,1.5.6,1.5-1.07,1.5H39.29a1.56,1.56,0,0,1-1.72-1.2Q29.64,112,21.69,92.29A2,2,0,0,0,20.92,91.08ZM34.58,70.46V68.91c-.38-4.16-2-7.46-6.22-8.95a27.65,27.65,0,0,0-6.69-1.2c-.71-.07-.76.33-.76.88v20c0,.73.28.91.91.83,1.39-.16,2.79-.25,4.16-.49C31.75,79,34.68,75.72,34.58,70.46Z"/><path class="cls-1" d="M128.2,74.28c0,10.47.1,21,0,31.43a40,40,0,0,1-2.9,14.85c-3,7.22-8.21,11.93-15.9,13.6A50.56,50.56,0,0,1,86.19,134c-8.4-2.07-13.58-7.52-16-15.73a57.64,57.64,0,0,1-2.25-13.56c-.46-9.32-.15-18.64-.2-27.95V42.32c0-1,.18-1.36,1.29-1.35q9.42.09,18.84,0c1.09,0,1.31.32,1.31,1.35v63.11A10.85,10.85,0,0,0,91,112.07c2.24,3.05,5.41,3.71,8.88,3.15s5.69-3,6.67-6.43a15.28,15.28,0,0,0,.51-4.15V42.36c0-1.16.3-1.45,1.45-1.44q9.18.09,18.36,0c1.13,0,1.48.26,1.48,1.44V74.28Z"/><path class="cls-1" d="M143.56,120.37v-9.6c0-.9.12-1.13,1-.63a41.93,41.93,0,0,0,11.58,4.79,15.94,15.94,0,0,0,6.19.29c6.8-1.21,7.71-8.6,4.67-12.61a33.75,33.75,0,0,0-6.46-6c-5.51-4.27-10.8-8.78-15-14.44C138.77,73,138.08,59.9,144,50.43a24.39,24.39,0,0,1,18.31-11.67,41.52,41.52,0,0,1,20.79,2.85,1.89,1.89,0,0,1,1.44,2.07c-.07,6,0,11.92,0,17.88,0,1.29,0,1.3-1.18.69a40.67,40.67,0,0,0-10.8-4.18,14.69,14.69,0,0,0-5.72-.1c-4.75.91-7,5.54-4.94,10a20.71,20.71,0,0,0,5.68,6.73c2.76,2.37,5.94,4.2,8.6,6.7,4.42,4.14,8.86,8.32,11.45,13.89,7.63,16.42-.62,35.35-19.63,39.18a38.11,38.11,0,0,1-23.5-3,1.36,1.36,0,0,1-.94-1.53C143.59,126.77,143.56,123.57,143.56,120.37Z"/><path class="cls-1" d="M404.39,85.08A22.08,22.08,0,0,1,397.55,91c-.84.44-.5.94-.28,1.48l8.1,20.11,7.65,19c.48,1.2.47,1.21-.87,1.21H392.59a1.46,1.46,0,0,1-1.64-1.13Q383,112,375,92.25c-.16-.38-.18-.86-.68-1.14a2.65,2.65,0,0,0-.14,1.39v39c0,1-.24,1.35-1.32,1.34q-9.17-.09-18.35,0c-1,0-1.26-.28-1.26-1.27V105.29c1.08-.25,2-.91,3.13-1.12a3,3,0,0,0,1.8-1A16.67,16.67,0,0,0,361,97.29c1.51-4.54,2.11-9.27,2.84-14,.63-4,.94-8.13,1.39-12.19.05-.45,0-1,.63-1.12,2.85-.59,5.56-1.61,8.33-2.45V79.4c0,.87.27,1.11,1.09,1a25.87,25.87,0,0,0,6.35-1.11c3.11-1.06,5.47-2.92,6.14-6.29a14.44,14.44,0,0,0-1.42-9.65c1.46-1.81,3.26-3.33,4.46-5.38a4.72,4.72,0,0,1,2.6-2c3.13-1,6.38-1.6,9.57-2.38a4.84,4.84,0,0,1,2.23-.26,28.19,28.19,0,0,1,1.86,3.47,30.54,30.54,0,0,1,1.59,18.85c-.57,1.38-1.18,2.76-1.84,4.08C406,81.56,405.29,83.37,404.39,85.08Z"/><path class="cls-1" d="M492.58,40.94c2,0,4,.05,6,0a1.46,1.46,0,0,1,1.65,1.12c3.65,9.5,7.34,19,10.56,28.65a4.76,4.76,0,0,0,.29.65c.42-.14.38-.51.47-.79,3.15-9.56,6.75-19,10.33-28.35a1.69,1.69,0,0,1,1.9-1.29c7.07.06,14.15,0,21.23,0,1.38,0,1.39,0,.81,1.19q-8.45,17.28-16.9,34.54c-2.27,4.63-4.52,9.26-6.8,13.88a4.11,4.11,0,0,0-.35,1.86v39c0,1.19-.34,1.44-1.47,1.43-6.16-.06-12.32,0-18.47,0-.9,0-1.25-.17-1.24-1.17.07-3.92,0-7.84,0-11.75a8.27,8.27,0,0,0,7.9-3.44c1-1.37,1.16-3.77.09-4.81-.24-.23-.44-.68-.86-.46s-.34.52-.33.86a6,6,0,0,1-.48,2.52c-.61,1.5-1.44,2.32-2.81,2.35a4.61,4.61,0,0,1-3.5-2.67V92.8A5.93,5.93,0,0,0,500,90c-1.62-3.26-3.17-6.54-4.76-9.81L483.38,55.65a1.14,1.14,0,0,1,.41-.81A66.84,66.84,0,0,0,490,45.71C490.93,44.16,491.35,42.33,492.58,40.94Z"/><path class="cls-2" d="M492.58,40.94c-1.23,1.39-1.65,3.22-2.61,4.77a68.05,68.05,0,0,1-6.18,9.13c-.22.24-.45.45-.41.81-2.23,2.16-4.1,4.64-6.65,6.53a27.31,27.31,0,0,1-8.45,4.29A23.09,23.09,0,0,1,466,67a36.17,36.17,0,0,1-7.91.57c-2.56-.22-4.85,1.33-7.34,1.74a11.49,11.49,0,0,0-2.38.65c-.14,0-.22.06-.21.21h0a10.17,10.17,0,0,0-6,4.19,3.19,3.19,0,0,0,.32,4.5,3.13,3.13,0,0,0,1.58.74l2.65.61a14.14,14.14,0,0,1,6.2,2.46,3.19,3.19,0,0,0,.68.94,4.85,4.85,0,0,1,1.57,4c-.12,1.34-.37,2.66-.54,4A3.15,3.15,0,0,0,454.1,93c-.06.31,0,.68-.44.71s-.89-.1-1-.45c-.34-1.06-1.27-1.68-1.77-2.62-1.2-2.24-3.23-3-5.64-2.86a5.25,5.25,0,0,1-3-1.83c-.33-.4-.88-.66-1.12,0s-.7.7-1.29.59a6.4,6.4,0,0,1-4.51-2.77c-.75-1.23-1.65-2.53-1.35-4.06a8,8,0,0,1,2-4.11c1.59-1.61,3.11-3.29,5.4-3.94-1.42,1.13-2.91,2.18-4.22,3.45a7.22,7.22,0,0,0-2.46,4.33c-.18,1.78,2.18,5.1,3.84,5.74a.65.65,0,0,0,.83-.22c1.46-1.6,1.84-1.6,3.34,0a4,4,0,0,0,2.73,1.49l.69.12c1.68.35,3.56.18,4.75,1.76.94,1.24,1.79,2.56,2.71,3.88.6-.67.39-1.62.69-2.41a11,11,0,0,1,.13-1.4,4.43,4.43,0,0,0-1.23-4.17A8.72,8.72,0,0,0,446.47,81c-1.08-.39-2.18-.72-3.29-1a3.49,3.49,0,0,1-1.58-5.59,8,8,0,0,0,.71-1.16,7.53,7.53,0,0,0-3.43,3.15c-1.66,2.76-.33,5.29,2.69,5.93,1.59.33,3.16-.17,4.74-.13,3.41.85,5.86,2.81,5.42,4.35a7,7,0,0,0-5.56-3.75,19.38,19.38,0,0,0-4.17.08c-1.8.3-4.92-2.35-4.47-4.19a8,8,0,0,1,1.84-3.92c1.32-1.34,2.84-2.44,4.38-3.72-1-.16-1.56.74-2.39.66.05-.51.52-.54.85-.7,2.06-1.06,4.37-1.55,6.37-2.75l1.78-.83,4.43-.82c-1.58.16-3-.78-4.58-.55h-1.35a1.41,1.41,0,0,0-1.24-.6c-3.73-.08-7.46-.4-11.19-.15a17.1,17.1,0,0,0-4.93.61,4.17,4.17,0,0,0-.71.06,68.4,68.4,0,0,0-14.54,5.29,13.72,13.72,0,0,0-5.44,5,45.42,45.42,0,0,0-4.74,10.34,18.4,18.4,0,0,0,1.33,14.85c.5.92,1.42,1.5,1.91,2.43,1.93,3.69,5.09,5.93,8.84,7.48a2.8,2.8,0,0,0,1.28.22,14.32,14.32,0,0,0,4.37,1,54.88,54.88,0,0,0,8.3-.48c4.31-.39,7.92-2.37,11.31-4.85,1.29-1,2.16-2.37,3.34-3.35a20.24,20.24,0,0,1,4-2.8l1.62-.55c.25.17,0,.31,0,.46a26.36,26.36,0,0,0-5.41,3.5c-1.19,1-2,2.34-3.28,3.15l-.45.3a19.08,19.08,0,0,1-5.5,3.24,22.42,22.42,0,0,1-7.68,1.51c-2.1,0-4.16.55-6.29.35-1.52-.13-2.95-.63-4.43-.86-2.91-.84-5.61-2-7.7-4.35a50.21,50.21,0,0,1-4.84-6.56c-2.8-4.48-2.92-9.32-1.37-14.22a39,39,0,0,1,2.09-5.8c.7-1.38,1.36-2.78,2.15-4.1s1.62-2.33,2.43-3.49h0a24.55,24.55,0,0,1,5.08-3.41,89.39,89.39,0,0,1,14.59-5c1.8-.14,3.61-.26,5.42-.41a38.65,38.65,0,0,1,5.59-.19,59.66,59.66,0,0,1,6.26.57,1.41,1.41,0,0,0,1,.2c.67.08,1.34.18,2,.25a50.69,50.69,0,0,0,6.4.41c.35,0,.69-.1.68.37a.46.46,0,0,1-.45.48.42.42,0,0,1-.24-.07,2,2,0,0,0-1.5,0c-2.19.22-4.43.28-6.46,1.31a7,7,0,0,0-2,.92c-.83.28-1.74.43-2.21,1.24l.18.28,2-1a6.61,6.61,0,0,0,2.21-.64,16.36,16.36,0,0,0,4.14-1,5.78,5.78,0,0,1,3.11-.66A23,23,0,0,0,468.28,66a7.94,7.94,0,0,0,2.66-1c1.41-.78,2.78-1.61,4.13-2.47A25.75,25.75,0,0,0,483,54.79a25.26,25.26,0,0,0,2.85-3.34A70.68,70.68,0,0,0,491.78,41a23.15,23.15,0,0,0,3.34-7.77c.57-2.63,1.59-5.14,2-7.81a24.47,24.47,0,0,0,.34-2.71c.09-2-.82-3.69-1.21-5.54-.35-1.63-1.64-2.5-2.71-3.41s-2.78-1.26-4.25-1.72c-1.78-.57-3.54-.06-5.32.08-4.11.32-7.4,2.43-10.47,4.84-1.48,1.16-2.79,2.58-4.27,3.76a21.6,21.6,0,0,1-8.34,3.91c-1.73.44-1.83,2.39-3.11,3.22-.07,0,0,.31,0,.46.16,1.15.32,2.29.5,3.43.08.51.21.79.93.63a6.69,6.69,0,0,1,4.73.81,1.59,1.59,0,0,1-1.59-.08,4.77,4.77,0,0,0-3.24-.31c-.25.07-.45.18-.46.47s.15.34.35.41c1.1.34,2.18.75,3.3,1a4.27,4.27,0,0,0,2.91-.44c.47-.23.78-.55.2-1-2-1.44-3.94-3-6.8-1.93a1.4,1.4,0,0,1,1.4-.94,5.62,5.62,0,0,1,3.71,1A8.47,8.47,0,0,0,466.59,33c.25,0,.61-.19.71.19s-.23.55-.51.71a17.83,17.83,0,0,1-3.51,1.36,3.22,3.22,0,0,0,1.51,1c.76.12.68.48.24,1A6.8,6.8,0,0,1,462,38.73a2.36,2.36,0,0,1-2.58-.72.62.62,0,0,0-.64-.26A65.36,65.36,0,0,0,452,39c-1,.23-2,.59-2.11,1.91l-.6,1.16c-1.19,2.35-2.77,4.22-5.54,4.75-2.53.49-5.05,1-7.58,1.58-3.77.61-7.51,1.34-11.3,1.83-4.36.57-8.68,1.42-13.05,2-2.19.29-4.46.28-6.54,1.2a4.84,4.84,0,0,0-2.23.26c-3.19.78-6.44,1.36-9.57,2.38a4.72,4.72,0,0,0-2.6,2c-1.2,2-3,3.57-4.46,5.38a6.32,6.32,0,0,1-2.08.86,59.24,59.24,0,0,0-10.07,3.28c-2.77.84-5.48,1.86-8.33,2.45-.66.13-.58.67-.63,1.12-.45,4.06-.76,8.15-1.39,12.19-.73,4.68-1.33,9.41-2.84,14a16.71,16.71,0,0,1-2.76,5.86,3,3,0,0,1-1.8,1c-1.14.21-2.05.87-3.13,1.12a141.23,141.23,0,0,1-14.66,3.18c-2.57.39-5.11.93-7.7.45a20,20,0,0,1-4.84-1.44c-.9-.41-1.33-.26-1.47.73-.42,3-1,6-1.45,9a39,39,0,0,0-.44,9.53,21.21,21.21,0,0,0,3.26,9.37c1.63,2.63,3.11,5.34,4.6,8,.86,1.56,1.65,3.15,2.35,4.78.41,1,.09,1.43-.73,1.78a9.19,9.19,0,0,1-3.34.76,39,39,0,0,0-7.5,1.4c-3.84,1-7.74,1.48-11.63,2.13-3.42.57-6.82,1.27-10.25,1.77-3.23.48-6.43,1.19-9.63,1.82-.31.06-.59.24-.9.29-.78.13-1.34.22-1.51-1a42.82,42.82,0,0,0-1.4-5.79,59.38,59.38,0,0,1-1.65-10.45c-.32-2.94-.51-5.88-.75-8.82a44,44,0,0,1,.59-7.85c.53-3.67,1.32-7.32,2.21-10.93a50.86,50.86,0,0,1,4.18-11.84,85.48,85.48,0,0,0,5.7-8.73,9.38,9.38,0,0,0,1.49-5.62c-.21-2.3-.57-4.55-2.39-6.24-1.41-2.12-3.53-2.36-5.78-2.14a9,9,0,0,1-3.84-.61c-1.42-.48-1.89-1.69-2.2-3-.23-1-.87-1.27-1.87-1a31.7,31.7,0,0,1-3.46.84,2.79,2.79,0,0,1-2.48-.58,5.91,5.91,0,0,1-2-4.3c0-1.67.13-3.38,2.12-4.07a.71.71,0,0,0,.32-.34c.41-.89-.6-3.44-1.52-3.76a2.12,2.12,0,0,1-1.41-1.44c-.74-2,0-3.72,1.05-5.37,1.76-2.41,4.29-3.33,7.13-3.66,1.93-.22,3.86-.48,5.78-.72a1.36,1.36,0,0,0,1.3-.35c1.21-1.29,2.48-2.54,3.77-3.75,2.77-2.58,6.34-3.54,9.78-4.72,2.51-.86,5.25-.75,7.77-1.63,2.68-.36,5.36-.78,8-1.07,4.92-.54,9.76-1.55,14.66-2.19a65.22,65.22,0,0,0,9.38-2A84.15,84.15,0,0,1,350.76,34c5.06-.84,10.14-1.53,15.19-2.45,6-1.08,12-2.25,18-3a1.17,1.17,0,0,0,1.22-1.1,2.24,2.24,0,0,1,2.27-2c2.57-.1,5-1,7.5-1.38,3.9-.6,7.73-1.5,11.66-1.95,4.15-.48,8.26-1.27,12.39-1.93A30.17,30.17,0,0,0,424.38,19c.38-.14,1-.17,1-.73a1.41,1.41,0,0,0-.86-1.22,5.11,5.11,0,0,0-2.9-.54c-.63,0-1.26.13-1.9.19-.26,0-.59.16-.68-.25a.56.56,0,0,1,.38-.69l.09,0c.55-.11,1.11-.16,1.64-.31a27.26,27.26,0,0,1,7.59-.62,117.07,117.07,0,0,1,14.83,1.57c1.77.26,3.42,1.08,5.25,1a31.64,31.64,0,0,0,5.31-.69,1.6,1.6,0,0,0,1.38-1.14c.29-.82,1.08-1.25,1.52-2,.2-.33.5-.25.7,0a2.37,2.37,0,0,1,.58.89c.22,1,.31,2,1.75,1,.35-.26.83.11.82.69a4.82,4.82,0,0,1-.72,3.19c-.17.22-.47.43-.2.7s.49,0,.71-.19a15.93,15.93,0,0,0,4.95-5.53,31,31,0,0,1,4.53-6.92c1.48-1.64,3.5-2.59,5.29-3.84,1.6-1.13,3.64-1.65,4.81-3.39a.48.48,0,0,1,.64-.13c.42.21.16.55.11.84a28.8,28.8,0,0,1-2.82,7.52c-2.11,4.48-5.77,7.33-10,9.68-2.14,1.19-4.17,2.6-6.21,4a3.33,3.33,0,0,0-1.44,1.82,8,8,0,0,0,4.11-1.16c1.54-.81,3-1.78,4.49-2.71a16.69,16.69,0,0,0,2.2-2,34.8,34.8,0,0,1,6.26-4.51c2.76-1.5,5.84-1.78,8.88-2.15s5.81.83,8.32,2.51a4.43,4.43,0,0,1,1.86,2.68c.64,2.57,1.57,5.08,1.19,7.82-.26,1.9-.89,3.7-1.29,5.56-.29,1.34-.81,2.62-1.06,4a17,17,0,0,1-1.87,4.74A12.54,12.54,0,0,0,492.58,40.94ZM313.26,95.41a.69.69,0,0,0-.84.38c-.42.68-1.5.79-1.57,1.79-.45-.17-.49.23-.65.46a.65.65,0,0,0,.64-.48c.56-.56,1.44-.78,1.72-1.64.3-.08.58-.19.67-.53l.25-.14h-.1S313.15,95.24,313.26,95.41ZM276,60.83l.21.22c.23.3.49.11.76.06.69-.1,1.08.16,1.25.91.42,2,.44,1.91,2.38,1.41.54-.14.56-.47.66-.8A2.08,2.08,0,0,1,282,61.3c.39-.27,1-.54.59-1.2s-.83-.58-1.44-.34a2.56,2.56,0,0,1-2.56-.28c-1.53-1.06-1.05-2.63-1.28-4.09-.69.87-2.09,1.12-2.23,2.54,0,1.09-.29,2.25,1,2.9Zm30.82,40.42a11.94,11.94,0,0,0-2.59,3.25c.92-1,1.85-2,2.77-3.07a1.21,1.21,0,0,0,.68-1.19c-.27.34-.56.67-.84,1ZM283.53,61.37a2.15,2.15,0,0,0-1.31,2.73,2.2,2.2,0,0,0,.23.46c.45.71,1.06.67,1.74.39a2.45,2.45,0,0,0,1.47-1.69c.18-.7-.37-1.16-1-1.47C284.34,61.59,284,61.22,283.53,61.37Zm-4.74,6.9c1-.55,2.13-.57,3.07-1.21a1,1,0,0,0,.47-1.33,1.51,1.51,0,0,0-.18-.26,4.26,4.26,0,0,0-.85-1c-.75-.52-1.51,0-2.26.11-.57.08-.24.64-.34,1-.23.83.45,1.63,0,2.44-.58.11-1.17.19-1.75.34a2.08,2.08,0,0,0-1.71,1.91,6.94,6.94,0,0,0,.26,2.36,2,2,0,0,0,2,1.39c.58.06.81-.21.58-.8a5,5,0,0,1,.71-5Zm74.59,36.27a26.63,26.63,0,0,0,3.67-1.29,5.72,5.72,0,0,0,2.73-3.87c.35-1.22.75-2.42,1.15-3.62a3.3,3.3,0,0,0,.29-2.12c-.51.17-.35.54-.41.82A23.34,23.34,0,0,1,359.2,99c-1.17,2.55-3.56,3.61-5.87,4.77-.29.11-.59.21-.88.35a23.39,23.39,0,0,1-6.32,2c-2.82.47-5.66.87-8.48,1.38a15.51,15.51,0,0,1-5.91.42A24.08,24.08,0,0,1,326,106c-.21-.1-.46-.64-.74-.11s0,.74.47.88a25.8,25.8,0,0,0,3,.88c2,.39,3.84,1.24,5.95.86,3.71-.68,7.46-1.21,11.18-1.91a35.48,35.48,0,0,0,7.5-2.06ZM283.84,60.76a4.16,4.16,0,0,1,2.2,1.29.46.46,0,0,0,.41.16,24,24,0,0,0,2.88-.67c1.1-.37.57-1.36.6-2.08a.93.93,0,0,0-.82-1,1.13,1.13,0,0,0-.26,0c-1.86.32-2.64-.87-3.36-2.22a6.4,6.4,0,0,1-.28-1.75c.11-.78-.2-.74-.77-.72a21.75,21.75,0,0,0-4.48.52c-1,.25-1.79.65-1.94,1.72a3,3,0,0,0,.87,3,2.25,2.25,0,0,0,2.15.15c1.4-.34,1.7-.16,2.24,1.21A.5.5,0,0,0,283.84,60.76Zm-2.58,7.32a2.82,2.82,0,0,0-2.17.89,4.35,4.35,0,0,0-.46,4c.16.56.33.74,1,.65,1.2-.17,2.29-.79,3.48-.8s1.19-.36,1-1.29a3.63,3.63,0,0,1,2.51-4.48l.19,0c2.16-.58,2.71-1.42,2.64-3.59,0-.43.1-1.14-.53-1.12-.79,0-2.07.1-2.14.83-.21,1.89-1.45,2.4-2.89,2.87-.24.08-.53,0-.64.4a2.44,2.44,0,0,1-2,1.69Zm166-27.16c-2.62-1-5.24-.24-7.86,0-.44.09-.93-.08-1.33.24a35.68,35.68,0,0,0-4.34.82c-.5.08-1.21.24-1.34-.48s.64-.45,1-.57l.47-.1c4-.66,7.83-1.75,11.81-2.32s7.79-1.17,11.66-1.91c.78-.15.85-.4.74-1.09-.3-1.76-.53-3.53-.76-5.31s-.36-1.78-2-1.52c-4.08.65-8.18,1.2-12.22,2-5,1-10,2.29-14.45,4.91a18.29,18.29,0,0,0-4.42,3.4c-.85,1-1.5,2-2.35,3-.14.15-.29.46-.55.17a.42.42,0,0,1,0-.43c.88-.89,1.29-2.11,2.19-3a28,28,0,0,1,10.64-6.26,94,94,0,0,1,12.94-3.07c2.6-.5,5.24-.86,7.87-1.24,2.1-.3,2.1-.27,1.5-2.2-.07-.23-.18-.45-.23-.68a1.14,1.14,0,0,0-1.26-1l-.24,0-3.16.56c-4.12.71-8.24,1.5-12.32,2.38a21.61,21.61,0,0,0-6,1.78c.24,0,.37.1.47.07,3.8-1,7.75-.75,11.57-1.53.4-.08.76-.13.82.36a.51.51,0,0,1-.38.61.33.33,0,0,1-.17,0c-.32,0-.54.26-.9.24-2.45-.13-4.75.76-7.1,1.23a27.52,27.52,0,0,0-9.13,4c-3.24,2.06-6.38,4.21-8.6,7.45-.2.3-.4.7-.93.62a1.48,1.48,0,0,1,.37-1.1,32.19,32.19,0,0,1,4.83-5.07,33.57,33.57,0,0,1,11-5.83,3.52,3.52,0,0,0,1.62-1c-.42,0-.84.08-1.25.15a28,28,0,0,0-9.13,3.92,79.79,79.79,0,0,0-7.62,6.22c-1.34,1.18-2.35,2.72-4,3.57-.54.28-1.05.63-1.63,1a1.62,1.62,0,0,0,1.33.06c3.07-.43,6.13-.88,9.2-1.35.3,0,.61-.14.67.22s-.29.37-.57.4l-7.22,1a20.2,20.2,0,0,0-4.69.8c-2,.79-3.93,1.67-5.85,2.62-1.4.69-3,.61-4.39,1.35-1.55,0-3,.74-4.61.4s-2.94,0-4.38-.36c-.65-.17-1,.21-.81.89a9.73,9.73,0,0,1,.11,3.8c-.08.84.23,1,.9.81,1.21-.24,2.41-.51,3.62-.74l8.06-1.54a41.31,41.31,0,0,1,8.31-1.64c4.43-.51,8.86-1,13.26-1.76,3-.49,5.83-1.64,8.87-1.91a3.78,3.78,0,0,0,1.75-.34c2.32-.06,4.44-1.11,6.74-1.33a10.2,10.2,0,0,0,2.78-.58,2.73,2.73,0,0,0,1.17-3.68l-.1-.17ZM464.8,19a14.59,14.59,0,0,0,4.58-2.69c1.52-1.37,2.86-2.94,4.31-4.39a19.55,19.55,0,0,0,5.47-9.57c.15-.09.23-.25.11-.37s-.23.06-.33.13c-2,1-3.71,2.29-5.6,3.39-3.1,1.79-4.81,4.86-6.55,7.85-1,1.77-1.82,3.73-3.37,5.12A25.54,25.54,0,0,1,458.61,22c-.34.18-.6.76-1.11.27s0-.86.17-1.25a13.79,13.79,0,0,0,1.57-4c-.69.1-.66.68-1,.95s-.29.58-.65.35-.09-.42,0-.65a4.93,4.93,0,0,0,.25-2.35c-.14-.6-.32-.86-.92-.32a2.91,2.91,0,0,0-1.11,2.41c.23,2,.9,3.87,1,5.87a.42.42,0,0,0,.08.22,7.29,7.29,0,0,0,2.9-.23,5.51,5.51,0,0,1,1.94-2.46c1.37-.87,2.26-2.32,3.7-3.11h0c.12.63-.6.73-.74,1.19-.07.07-.2.17-.18.21S464.68,19.05,464.8,19ZM287.87,132.83c0,.94-.49,1.84-.28,2.8,1.91-.3,3.79-.62,5.67-.87q4.74-.63,9.48-1.2c2.36-.28,4.64-1,7-1a1.47,1.47,0,0,0,1.53-1.05c1-3.5,1.6-7.11,3.05-10.47.22-.53-.05-.7-.49-.58-3,.79-6.14.82-9.19,1.42a77.06,77.06,0,0,1-7.72,1.24c-2.11.22-4.31.26-6.32,1.14-.34.06-.39.34-.49.61A59.54,59.54,0,0,0,287.87,132.83Zm18.69-74c3-.58,5.91-1.27,8.9-1.72s6-1,9.07.11c2.63,1,3.26,2.72,1.5,4.8a4,4,0,0,1-.49.52,2.14,2.14,0,0,0-.5,2.72c.38.94,1.31.94,2.15.93a11.42,11.42,0,0,0,6-2.14c1.62-1,3.12-2.2,5.12-2.41a2.43,2.43,0,0,1,3,1.71l0,.14a3.11,3.11,0,0,0,2.07,2.23c3.32,1.06,6.68.72,10,.63.46.19.29.37,0,.56a16.39,16.39,0,0,0-3.57,0,12.73,12.73,0,0,1-5.88-.4c-1.68-.42-3.4-1.07-3.4-3.36,0-.56-.51-.69-1-.79-2.68-.55-4.58,1.16-6.53,2.42a12.4,12.4,0,0,1-6.27,2,2.36,2.36,0,0,1-2.47-2.26,2.26,2.26,0,0,1,.1-.81,4.79,4.79,0,0,1,1.38-2.18c1.12-1.09,1.09-2.17-.12-3.12a5,5,0,0,0-2.13-1,17.55,17.55,0,0,0-6.85,0c-3.46.7-7,1-10.42,2a4.21,4.21,0,0,0-.71,0c-3.44.64-6.83,1.47-10.3,1.89-.77.09-.92.55-.82,1.28.16,1.08.29,2.19-.8,3a1.34,1.34,0,0,0-.38,1c0,1.23.12,2.46.18,3.7,0,.52.21.66.76.54,2.44-.52,4.9-1,7.35-1.48,3.82-.55,7.64-1.11,11.47-1.64a8.69,8.69,0,0,1,5,.72l6.75,3.19c1.82.87,3.77,1.51,5.56,2.42A17.4,17.4,0,0,0,344,75c3.15-1,6.17-2.35,9.38-3.16a22.57,22.57,0,0,0,5.93-2.6l.15.19c-.31,1.06-1.6.88-2.22,1.74a1.5,1.5,0,0,0,.57-.06c2.67-.57,5.19-1.66,7.83-2.37,2.9-.79,5.77-1.67,8.61-2.67a62.41,62.41,0,0,1,7.1-1.89,7.81,7.81,0,0,0,4-1.85,9.68,9.68,0,0,0,5.33-7.41A20.1,20.1,0,0,0,391,51.2c0-1.72-.21-1.94-1.94-1.89a21.34,21.34,0,0,0-3.08.34c-4.31.75-8.61,1.53-12.91,2.29-.43.08-1.07.12-1.16-.35s.59-.5,1-.57c4.18-.77,8.36-1.5,12.54-2.26.55-.11,1.29,0,1.36-.89s-.54-1-1.08-1.27c-2-1-3.78-2.37-5.67-3.54a14.86,14.86,0,0,0-4.22-2.14c-.74-.27-1.47-.58-2.22-.79a17.09,17.09,0,0,0-5-1.05,57.69,57.69,0,0,0-6.56.46A61.58,61.58,0,0,0,354,40.92h-.52c-2.37.31-4.65,1-7,1.41-2.91.44-5.8,1.06-8.69,1.63-.15,0-.66-.21-.46.33s0,.57-.42.37a4.19,4.19,0,0,0-2.3-.17c.9.74,2.13.67,3,1.47-.54.38-.85,0-1.21-.12-1.26-.45-2.49-1.19-3.86-1.06-1.54.16-3,.56-4.57.84-.25,0-.6.27-.69-.15s.2-.47.51-.54c.78-.16,1.57-.3,2.33-.51,4.34-1.25,8.83-1.65,13.25-2.47,7.43-1.39,14.78-3.3,22.4-3.65,4.64-.22,9.14,0,13.19,2.62.9.73,2,1.2,2.86,1.89a19.41,19.41,0,0,0,8.68,4,29.39,29.39,0,0,0,9.07.48,14.11,14.11,0,0,0,6.11-.77c1.28-.53,2.51-1.16,3.77-1.72a27.14,27.14,0,0,0,5.48-3.15c3-2.29,5.51-5.23,8.5-7.58a34.44,34.44,0,0,1,10.47-5.84,87,87,0,0,1,10.89-2.68c3.44-.66,6.87-1.36,10.31-2,1-.17,1.27-.56,1.11-1.52a24.54,24.54,0,0,0-.63-3.16,1.9,1.9,0,0,0-2.14-1.62,2.34,2.34,0,0,0-.38.09,7.84,7.84,0,0,1-1.18.19c-2.8.34-5.65.47-8.42,1-5.7,1.16-11.47,1.91-17.21,2.84-6.72,1.09-13.36,2.63-20.06,3.88-5.87,1.1-11.66,2.62-17.6,3.33a14.31,14.31,0,0,0-2.34.4c-2.84.87-5.79,1.17-8.67,1.86-4.12,1-8.43,1.12-12.63,1.93-4.38.83-8.77,1.63-13.15,2.44-3.41.62-6.7,1.78-10.1,2.33s-7,1.09-10.5,1.52c-5.41.66-10.78,1.63-16.17,2.47a7.58,7.58,0,0,0-.82.08c-2.37.51-4.73,1.07-7.1,1.53-3.16.61-6.36,1.06-9.22,2.68a22.09,22.09,0,0,0-4,3.21,1.29,1.29,0,0,0-.4,1.52c.29.58.82.18,1.26.09,5.76-1.16,11.54-2.19,17.36-3a17.49,17.49,0,0,1,2.61-.14c4.8.31,9.2,2.12,13.53,3.91,3.45,1.41,6.92,2.65,10.48,3.75,5,1.53,9.88.75,14.77-.39,1.08.35,0,.59,0,.89a12.1,12.1,0,0,0-3.27.66,4.51,4.51,0,0,0,3.27,1c.12.22.59.13.48.5,0,.11-.31.15-.47.22a8.54,8.54,0,0,1-3.77-1,4.36,4.36,0,0,0-2.41-.44,22.49,22.49,0,0,1-4.64-.06A52,52,0,0,1,330.41,53c-3.72-1.54-7.36-3.26-11.46-3.64-2.47-.24-4.89-.95-7.41-.79a69.49,69.49,0,0,0-11.47,1.89c-4,.82-7.84,2.39-12,2.58a2.63,2.63,0,0,0-1.57.39,1.75,1.75,0,0,0-.27,2.19c.5.74.22,2.1,1.67,2.15,2.61.1,2.62.12,2.84,2.62.06.66.34.77.93.69a142.27,142.27,0,0,0,14.89-2.26Zm46.8,15c-.59.22-1.17.46-1.77.66-4.48,1.51-9,2.78-13.33,4.83-.45.22-.73.31-.61.91a15,15,0,0,0,3.19,6.7A31,31,0,0,0,345,91.09c1.51,1.29,2.67,2.9,4.16,4.19a2,2,0,0,1,.68,1.61c0,.37.32.89-.27,1.16a1.42,1.42,0,0,1-1.46-.1q-.58-.42-1.2-.78A29.11,29.11,0,0,1,340,92.39c-2.86-2.73-5.66-5.63-7.25-9.41-.11-.26-.17-.71-.51-.72s-.48.46-.65.77c-.76,1.41-1,3-1.66,4.45a41.84,41.84,0,0,0-1.86,6.18c-.82,3.07-1.5,6.17-2.26,9.26-.42,1.71-.91,2.25,1.34,2.88.18,0,.33.23.52.29,2.37.8,4.71,1.67,7.31,1.21,3-.53,6-1,9.06-1.41a26.39,26.39,0,0,0,9.29-2.84,7.12,7.12,0,0,0,3.67-2,13.68,13.68,0,0,0,2.7-4.79,52.07,52.07,0,0,0,1.92-8.57,62.39,62.39,0,0,0,1.19-8.72c.1-2.38.41-4.75.37-7.13,0-1.09-.65-1-1.24-.62a9.1,9.1,0,0,1-2.41,1c-2.06.51-4.13,1.06-6.19,1.63Zm-62.68,45c1.21-1.33,1.93-3,3-4.41,1.9-2.49,3.73-5,5.84-7.37,2.76-3,5.63-6,8.64-8.77a66.23,66.23,0,0,1,11.9-9.11c1-.55,2.08-1.1,3.21-.18a2.82,2.82,0,0,1,.85,3.14c-.18.81-.27,1.65-.51,2.44-.92,3-1.57,6.14-2.22,9.25-.45,2.17-.87,4.37-1.49,6.49s-1.19,4.53-1.75,6.79c-1,4-1.75,8.13-3.06,12.07-.56,1.67-.28,3.41-.8,5.06-.65,2.08-1.35,4.12-2.17,6.14a17.85,17.85,0,0,1-5.17,7,32.79,32.79,0,0,1-10.11,5.49c-.62.22-1.2.55-2.08.95A134.3,134.3,0,0,0,310.63,152c4.48-.71,8.91-1.62,13.34-2.55,1.91-.4,3.8-.89,5.7-1.33.64-.14.82-.4.59-1.08a32.94,32.94,0,0,0-2.92-6c-1.26-2.07-2.58-4.11-3.76-6.24-1.67-3-1.71-6.43-2.18-9.72a5.12,5.12,0,0,1-.14-1.87c.49-2.5.56-5,1.05-7.55.59-2.94.58-6,1.49-8.87.77-2.45,1.28-5,1.84-7.5a70.41,70.41,0,0,1,2.28-8.55c.65-1.83,1.29-3.65,1.77-5.53.63-2.48-.29-4.41-2-6.23-1.29-1.39-3-2-4.5-3a9,9,0,0,0-8-1,19.9,19.9,0,0,0-9.06,6.13,30.45,30.45,0,0,0-3.36,4.7c1.11-4.09,4.42-6.43,7.36-9.1a6.27,6.27,0,0,0-1.37.09c-1.45.24-2-.36-1.84-1.82a3.6,3.6,0,0,1,.74-1.61c.39-.54,1-1.14.39-1.81s-1.28-.4-1.92-.21a13.37,13.37,0,0,0-3.71,1.83c-1.18.83-2.28,1.91-3.88,1.93a1.3,1.3,0,0,1-1.37-1.21c-.26-1.37-.65-1.6-2-1.3a28.71,28.71,0,0,1-4.7.82c-1.42.16-2.83.4-4.23.7-.79.13-1,.5-.64,1.25a3.3,3.3,0,0,0,3.53,1.87,9.53,9.53,0,0,1,7.18,2.49A13.1,13.1,0,0,1,298.39,82c1.11,1.92,1.91,3.83,1.19,6.08a1.47,1.47,0,0,0,0,.59,7.41,7.41,0,0,1-1.47,4.79,71.46,71.46,0,0,0-5,8.91c-.76,1.83-1.91,3.48-2.47,5.39a7,7,0,0,0-1.09,2.62,101.6,101.6,0,0,0-2.33,11.17c-.25,1.84-.4,3.7-.59,5.55.86-2.32,2.52-4.29,2.79-6.8,0-.06.21-.1.31-.16a2.33,2.33,0,0,0,.95-1.36Zm1.51,2.1a54,54,0,0,0,7.06-.87c4.11-.5,8.26-.58,12.34-1.3,3.18-.56,3.21-.7,4-3.6a7.2,7.2,0,0,1,.33-.88,69.36,69.36,0,0,0,2.26-8,.91.91,0,0,0-1-1.23c-.58,0-1.16.2-1.75.26a68.75,68.75,0,0,0-13.76,2.89,1.72,1.72,0,0,0-.91.53c-1.35,1.84-3.09,3.33-4.3,5.32a77.6,77.6,0,0,0-4.27,6.81Zm18.2,13.78a2,2,0,0,0-1.15,0c-2.5.46-5,1-7.51,1.33-4.58.58-9.2.8-13.73,1.79-1,.23-1.2.67-1.14,1.54a75.47,75.47,0,0,0,1.1,9,2.14,2.14,0,0,0,1.3,1.76,6.55,6.55,0,0,0,4.63.29c2.2-.48,4.07-1.78,6.11-2.63a13.44,13.44,0,0,0,7.13-6.29c1.17-2.28,2.21-4.56,3.26-6.86ZM445.22,17.87c-.8-.19-1.35-.33-1.9-.45a71.38,71.38,0,0,0-7.71-.9,48.12,48.12,0,0,0-7.4-.2c-.46,0-1,0-.74.87a2.1,2.1,0,0,1-1.15,2.39c-1.68,1.05-3.63,1-5.45,1.41-3,.71-6.13,1-9.18,1.59-5.51,1-11.05,1.85-16.6,2.68a57.8,57.8,0,0,0-6.39,1.42c-.53.15-1.3.41-1.19,1s.86.22,1.33.16c7-.87,13.9-2.32,20.83-3.59,6.06-1.11,12.06-2.56,18.18-3.34C433.58,20.13,439.26,19.12,445.22,17.87Zm-139.9,86.51c.21.23.46.14.68.1,3.7-.66,7.37-1.62,11.17-1.68a1.44,1.44,0,0,0,1.44-1c.43-1.19.91-2.37,1.34-3.56.59-1.64,1.2-3.27,1.73-4.94a1.92,1.92,0,0,0-.29-2c-.55-.5-1.2,0-1.78.24a3.79,3.79,0,0,0-1.06.54c-3.45,2.79-7.08,5.38-10,8.71C307.43,101.94,306,102.86,305.32,104.38ZM349,96.6a7.16,7.16,0,0,0-.66-.9c-2.35-2.39-4.75-4.73-7.06-7.15a14.58,14.58,0,0,1-3.67-6.19c-.72-2.63-.89-2.69-3.38-1.31-.07,0-.12.12-.19.14-.95.24-.83.81-.57,1.54a19.19,19.19,0,0,0,3.39,5.44,32.79,32.79,0,0,0,7.3,6.61,37.61,37.61,0,0,0,3.9,2.22C348.44,97.19,348.85,97.32,349,96.6ZM284.66,70.69c0,2.07,0,2.1,2.1,1.69,1.44-.28,2.87-.61,4.3-1,1.8-.43,1.78-.45,1.65-2.23-.06-.79-.11-1.59-.1-2.38a2.09,2.09,0,0,1,.75-1.79c.59-.46.7-2.37.19-3.13s-1.2-.12-1.82-.1c-.19,0-.38.13-.58.13-.92,0-1.18.41-1.16,1.35a4.22,4.22,0,0,1-.88,3.35c-.67.71-1.58.7-2.38,1C285,68.35,284.65,68.85,284.66,70.69Zm26,81.86a66.79,66.79,0,0,0,9.36-.8,58.47,58.47,0,0,0,10-1.83c.88-.25.82-.75.71-1.28-.17-.77-.77-.2-1.05-.12-3.89,1-7.82,1.88-11.75,2.69-2.42.5-4.85.9-7.26,1.34ZM287.2,136.71a28.65,28.65,0,0,0,3.47-.2c5.34-.81,10.68-1.68,16-2.53.25,0,.68.14.65-.28s-.4-.34-.75-.29c-1.84.31-3.69.6-5.54.85-3.86.54-7.72,1-11.58,1.58a4.9,4.9,0,0,0-2.24.87Zm26.42-33.15c-1.28.23-2.41.4-3.54.64-1.73.37-3.5.81-5.21,1-1.18.16-1.27.64-1.65,1.28,2.6-.51,5.19-.87,7.76-1.31,1-.17,2.17-.28,2.65-1.61Zm19.76-24.38c-.17-.18-.21-.27-.27-.28-4.44-.92-7.71-3.74-10.94-6.64A13,13,0,0,0,319.12,70a48.07,48.07,0,0,0,5.29,4.59,57.25,57.25,0,0,0,6.35,4.74,2,2,0,0,0,2.63-.15ZM459.17,35c.11,3,1.39,3.89,3.92,2.79.45-.2,1.18-.24,1.26-.77s-.68-.6-1-.79c-1.08-.6-1.89-1.82-3.56-1.73a5.93,5.93,0,0,0,2.57,1.5c.24.06.69-.06.61.35s-.49.19-.77.16C461,36.39,460.37,35.26,459.17,35Zm-168,88.13c2.45-.17,4.74-.86,7.12-.81-2.87-1.44-6.39-1-7.09.79Zm18.42-47c-1.45-1.08-1.45-1.16-.33-2.7a2.2,2.2,0,0,0,.19-.3,1.68,1.68,0,0,0-1.37-2.38,2,2,0,0,1,.16,2.83,1.8,1.8,0,0,1-.29.26,1.37,1.37,0,0,0-.24.4c-.23.62-.72,1.26-.1,1.87s1.32.3,2,0Zm148.67-52.3c-.43.19-1.34-.08-1.19.73s0,2.07.79,2.06,1.29-1.2,1.43-2.11C459.37,23.91,458.73,23.92,458.26,23.83ZM314,69.42c2.1.6,3.32,2.76,5.85,3.19C317.84,71.25,316.4,69.48,314,69.42ZM303.7,135a4.55,4.55,0,0,0-2.09.35A3.68,3.68,0,0,0,303.7,135Zm5.83-36.42c.18.15.27,0,.39-.1s.21-.2.05-.34a.67.67,0,0,0-.44.48Zm-14.84,55.21s-.07-.07-.1-.07l-.22.07s.07.06.1.06Z"/><path class="cls-1" d="M230.23,97.44v34.07c0,1.07-.29,1.33-1.33,1.32q-9.24-.08-18.48,0c-1.07,0-1.4-.24-1.4-1.37q.06-33.95,0-67.9c0-1.75.24-1.55-1.51-1.55H196c-.83,0-1.2-.12-1.2-1.09v-19c0-.75.18-1,1-1h47.75c.8,0,1,.24,1,1V61c0,.81-.28,1-1,1H231.43c-1,0-1.26.27-1.26,1.26C230.25,74.64,230.23,86,230.23,97.44Z"/><path class="cls-1" d="M274.37,55.83c-1.08,1.65-1.79,3.34-1.05,5.37a2.12,2.12,0,0,0,1.41,1.44c.92.32,1.93,2.87,1.52,3.76a.71.71,0,0,1-.32.34c-2,.69-2.12,2.4-2.12,4.07a5.91,5.91,0,0,0,2,4.3,2.79,2.79,0,0,0,2.48.58,31.7,31.7,0,0,0,3.46-.84c1-.29,1.64-.06,1.87,1,.31,1.32.78,2.53,2.2,3a9,9,0,0,0,3.84.61c2.25-.22,4.37,0,5.78,2.14-1.57,3.13-3.13,6.25-4.68,9.39a1.91,1.91,0,0,0-.15.81v10.39A51.06,51.06,0,0,0,286.5,114c-.89,3.61-1.68,7.26-2.21,10.93a44,44,0,0,0-.59,7.85h-13c-1,0-1.23-.33-1.23-1.29v-39a5.14,5.14,0,0,0-.53-2.3q-11.61-24-23.2-48c-.64-1.32-.64-1.32.8-1.32h20.87A1.47,1.47,0,0,1,269,42C270.83,46.67,272.61,51.25,274.37,55.83Z"/><path class="cls-1" d="M478.47,104.54q2.52,9.61,5,19.22c.7,2.67,1.38,5.34,2.12,8,.21.74.21,1.07-.73,1.07h-19.8c-.79,0-1-.31-1.16-1-1-4.44-2.06-8.87-3-13.31-.19-.87-.54-1.06-1.35-1H439.92c-.87,0-1.24.2-1.44,1.11-1,4.36-2.07,8.7-3.05,13.06-.21.89-.54,1.2-1.5,1.2-6.36-.05-12.72,0-19.08,0-.41,0-1.13.33-.85-.7q2.47-9.12,4.89-18.27c2,.28,4,.19,6.07.37a29.92,29.92,0,0,0,8.66-.15A71.87,71.87,0,0,0,449,108.76c2.33-1.06,4.63-2.12,7.29-1.81a2.65,2.65,0,0,0,1.52-.24c.3-.14.83,0,.85-.49s-.37-.7-.73-.87-.94-.19-.87-.78.63-.57,1-.69c1.91-.55,3.88-.85,5.83-1.23a22.65,22.65,0,0,1,12.61,1.26C477.12,104.11,477.8,104.31,478.47,104.54Z"/><path class="cls-2" d="M478.47,104.54c-.67-.23-1.35-.43-2-.68a22.65,22.65,0,0,0-12.61-1.26c-1.95.38-3.92.68-5.83,1.23-.39.12-1,.15-1,.69s.48.61.87.78a1,1,0,0,1,.73.87c0,.41-.55.35-.85.49a2.65,2.65,0,0,1-1.52.24c-2.66-.31-5,.75-7.29,1.81A72,72,0,0,1,433.6,114a29.92,29.92,0,0,1-8.66.15c-2-.18-4.05-.09-6.07-.37a16.77,16.77,0,0,1-8.09-4.93c-3.92-4.06-6.68-8.76-7.26-14.49a22,22,0,0,1,.8-8.38,3.26,3.26,0,0,0,.07-.94c.9-1.71,1.59-3.52,2.45-5.25.66-1.32,1.27-2.7,1.84-4.08a1.14,1.14,0,0,0,.67-.47,22.94,22.94,0,0,1,6.13-5.4,25.5,25.5,0,0,1,6.33-3.27c3.37-.94,6.77-1.79,10.22-2.45a67,67,0,0,1,12.81-.69,43.07,43.07,0,0,1,5.09.32c3,.52,6.11.64,9.14,1.27a16.29,16.29,0,0,0,8.72-.69,7.87,7.87,0,0,0,3.1-1.15c3-1.63,6.1-3.11,8.23-6l.7-.29c.17.4-.14.57-.35.85-1.23,1.62-3,2.55-4.59,3.7a16.52,16.52,0,0,1-7,3.17,31.23,31.23,0,0,1-3.57.81c-2.08.1-4.21.48-6.25,0a29.29,29.29,0,0,0-8.06-1.1l-.91-.14a59,59,0,0,0-8.61-.47c-2.94-.1-5.81.56-8.71.92-.75.13-1.49.28-2.24.39a34.14,34.14,0,0,0-15,6c-.93.66-2.1,1.2-2.42,2.49h0c-.52-.22-.82.21-1.06.48a27,27,0,0,0-2.61,3.34A41.48,41.48,0,0,0,406,82.63a25.76,25.76,0,0,0-1.76,6.5,19.12,19.12,0,0,0,.58,9.17,25.35,25.35,0,0,0,5.41,9.15A17.48,17.48,0,0,0,419,113.2c.19.06.37.14.55.19,2,.53,4.05.15,6.06.38a30.26,30.26,0,0,0,12.6-1.39c2-.62,3.87-1.63,5.85-2.31a14.35,14.35,0,0,0,4.13-2.09,11.2,11.2,0,0,1,4.22-1.82c1.31-.32,2.65-.42,4-.61a5.45,5.45,0,0,0-.95-.6c-.22-.14-.6-.2-.57-.54s.37-.32.63-.42a38.72,38.72,0,0,1,7.8-2.49,30.73,30.73,0,0,1,9.62-.11c1.59.24,3,1.17,4.73,1.23,0-.83-1.91-1.3-.42-2.31.87.23,1.77.4,2.63.7,3.26,1.11,5.62,3.48,8,5.84a14.86,14.86,0,0,1,2.31,2.7,27.65,27.65,0,0,0,7.12,7.92,3.72,3.72,0,0,0,3.39,1c3.24.64,6.33-.86,6.53-3.3-.44.65-.64,1.33-1.41,1.63-2.08.8-3.38.48-5.12-1.41a7.77,7.77,0,0,1-1.86-6.64,15.55,15.55,0,0,0,.39-4.71c-.24-1.33-.42-2.66-.64-4a8.47,8.47,0,0,0-4-6.25c-1.05-.62-.78-1.14-.14-1.57.87-.59.32-.83-.12-1.17s-.86-.3-1.16-.77a9.4,9.4,0,0,0-3.66-3.1c-2.69-1.41-5.4-2.92-8.57-3-2.6-.08-5.24-.29-7.62,1.15-.36.17-.73.31-1.08.49a6.85,6.85,0,0,0-2.64,3,1.16,1.16,0,0,1-1.52.58c-.65-.27-.09-.81,0-1.23a1.5,1.5,0,0,0,0-.3A12.7,12.7,0,0,0,465.23,89a12.56,12.56,0,0,1-2.47,1.4c1.36-1.66,3.29-2.38,5.18-3.17.34-.14.7-.4,1,0s-.17.55-.3.82-.54.77-.08,1,.67-.24.8-.55a8.24,8.24,0,0,1,3.77-3.68,19.88,19.88,0,0,1,2-.73,18.62,18.62,0,0,1,8.27.15,31.48,31.48,0,0,1,7.51,3.43c1.31.81,2.15,2.1,3.41,2.9,1.48.94,1.61,1.41.3,2.53,1.58.19,2.18,1.46,2.77,2.55,2.39,4.4,2.69,9.14,2,14a5.27,5.27,0,0,0,1.28,4.62,4.61,4.61,0,0,0,3.5,2.67c1.37,0,2.2-.85,2.81-2.35a6,6,0,0,0,.48-2.52c0-.34,0-.71.33-.86s.62.23.86.46c1.07,1,.93,3.44-.09,4.81a8.27,8.27,0,0,1-7.9,3.44,14.36,14.36,0,0,1-4.21-1.57,18.2,18.2,0,0,1-5.4-5.58,46.62,46.62,0,0,0-6.19-7.47,11.18,11.18,0,0,0-5.19-2.83c0,.1-.09.18-.08.23.2.6,1,1.1.64,1.75S479,104.35,478.47,104.54Z"/><path class="cls-1" d="M309.9,41c-2.52.88-5.26.77-7.77,1.63-3.44,1.18-7,2.14-9.78,4.72-1.29,1.21-2.56,2.46-3.77,3.75a1.36,1.36,0,0,1-1.3.35c1.24-3.27,2.49-6.55,3.72-9.83a.89.89,0,0,1,1-.68Z"/><path class="cls-1" d="M353.39,54.94V41h22.38A14.94,14.94,0,0,1,380,43.06c1.89,1.17,3.68,2.52,5.67,3.54.54.27,1.14.52,1.08,1.27s-.81.78-1.36.89c-4.18.76-8.36,1.49-12.54,2.26-.37.07-1.06,0-1,.57s.73.43,1.16.35c4.3-.76,8.6-1.54,12.91-2.29a21.34,21.34,0,0,1,3.08-.34c1.73-.05,1.9.17,1.94,1.89a20.52,20.52,0,0,1-.27,3.68,9.68,9.68,0,0,1-5.33,7.41,6.75,6.75,0,0,0-2.16-1.66c-2.56-1.35-5.37-1.64-8.18-1.88-.65,0-.81.24-.81.84V66c-2.84,1-5.71,1.88-8.61,2.67-2.64.71-5.16,1.8-7.83,2.37a2.27,2.27,0,0,0-.57.06c.62-.86,1.91-.68,2.22-1.74.16,0,.46,0,.31-.3s-.33,0-.46.11a22.57,22.57,0,0,1-5.93,2.6V66.87c.29-.19.46-.37,0-.56V58.23c.16-.07.44-.11.47-.22.11-.37-.36-.28-.48-.5V55.83C353.41,55.53,354.47,55.29,353.39,54.94Z"/><path class="cls-1" d="M448.62,68.19c-2,1.2-4.31,1.69-6.37,2.75-.33.16-.8.19-.85.7h0c-2.29.65-3.81,2.33-5.4,3.94a8,8,0,0,0-2,4.11c-.3,1.53.6,2.83,1.35,4.06a6.4,6.4,0,0,0,4.51,2.77c.59.11,1,.16,1.29-.59s.79-.39,1.12,0a5.25,5.25,0,0,0,3,1.83c-.83,4-1.64,8.11-2.52,12.16-.18.81-.06,1,.78,1h7.3a20.24,20.24,0,0,0-4,2.8c-1.18,1-2,2.4-3.34,3.35-3.39,2.48-7,4.46-11.31,4.85a54.88,54.88,0,0,1-8.3.48,14.32,14.32,0,0,1-4.37-1c.07-.31.13-.62.21-.93q5.92-22.35,11.86-44.74a17.1,17.1,0,0,1,4.93-.61c3.73-.25,7.46.07,11.19.15a1.41,1.41,0,0,1,1.24.6C448.81,66.7,448.71,67.45,448.62,68.19Z"/><path class="cls-1" d="M468.28,66.47c1.67,6.09,3.34,12.18,4.83,18.32a8.24,8.24,0,0,0-3.77,3.68c-.13.31-.44.75-.8.55s-.09-.71.08-1,.54-.51.3-.82-.64-.1-1,0c-1.89.79-3.82,1.51-5.18,3.17h0a.77.77,0,0,0-.74.25h0a7.16,7.16,0,0,0-2,1.49c-1.53,1.33-3,2.72-4.39,4.19l-1.08-4.61c.17-1.33.42-2.65.54-4a4.85,4.85,0,0,0-1.57-4,3.19,3.19,0,0,1-.68-.94q-1.1-6.66-2.17-13.35c2.49-.41,4.78-2,7.34-1.74a36.17,36.17,0,0,0,7.91-.57A21.9,21.9,0,0,0,468.28,66.47Z"/><path class="cls-1" d="M434.91,53.87c0-1.89.93-3.6,1.21-5.45,2.53-.53,5-1.09,7.58-1.58,2.77-.53,4.35-2.4,5.54-4.75l.6-1.16H458a4.16,4.16,0,0,1,1.1,1.37,4.33,4.33,0,0,0,3.51,2.25c.1.51.18,1,.31,1.52,1.08,4.19,2.18,8.38,3.27,12.56a3.44,3.44,0,0,1-1.88-.07,25.52,25.52,0,0,1-8.64-4.32c-1.28-.94-2.27-2.25-3.61-3.06-3.24-2-6.69-1.57-10.13-.5C439.46,51.46,437.33,53,434.91,53.87Z"/><path class="cls-1" d="M353.37,103.05V73.8c2.06-.57,4.13-1.12,6.19-1.71a9.1,9.1,0,0,0,2.41-1c.59-.38,1.22-.47,1.24.62,0,2.38-.27,4.75-.37,7.13a62.39,62.39,0,0,1-1.19,8.72,52.07,52.07,0,0,1-1.92,8.57A13.59,13.59,0,0,1,357,101,7.06,7.06,0,0,1,353.37,103.05Z"/><path class="cls-1" d="M477.26,100.31c-1.49,1,.38,1.48.42,2.31-1.71-.06-3.14-1-4.73-1.23a30.73,30.73,0,0,0-9.62.11,38.72,38.72,0,0,0-7.8,2.49c-.26.1-.6.09-.63.42s.35.4.57.54a5.45,5.45,0,0,1,.95.6c-1.34.19-2.68.29-4,.61A11.2,11.2,0,0,0,448.2,108a14.35,14.35,0,0,1-4.13,2.09c-2,.68-3.83,1.69-5.85,2.31a30.26,30.26,0,0,1-12.6,1.39c-2-.23-4.06.15-6.06-.38a2.12,2.12,0,0,1-.55-.19l.35-1.13c1.48.23,2.91.73,4.43.86,2.13.2,4.19-.37,6.29-.35a22.42,22.42,0,0,0,7.68-1.51,19.08,19.08,0,0,0,5.5-3.24l.23.2a1.29,1.29,0,0,1-.08.57c-.2.29-.6.56-.17.88s.52-.22.77-.38c.7-.45.83-1.41,1.71-1.74a12.29,12.29,0,0,0,2.9-2l6.13-4.43c1.89.07,1.89.07,1.68-1.16a5.41,5.41,0,0,1,.62-.55,72,72,0,0,1,12.63-6.1,15.21,15.21,0,0,1,5.47-.9Zm-36.65,10.76c.16-.6,1-.36,1-1.07,0-.22-.18-.47-.33-.38a15,15,0,0,0-1.24,1Z"/><path class="cls-1" d="M308.22,55.08a27.43,27.43,0,0,1-1.66,3.71c-5,1-10,1.8-15,2.48-.59.08-.87,0-.93-.69-.22-2.5-.23-2.52-2.84-2.62-1.45-.05-1.17-1.41-1.67-2.15a1.75,1.75,0,0,1,.27-2.19,2.63,2.63,0,0,1,1.57-.39c4.15-.19,8-1.76,12-2.58a69.49,69.49,0,0,1,11.47-1.89,51.36,51.36,0,0,1-3.19,6.33c.09-.62-.19-.76-.77-.64-1.63.34-3.28.6-4.9,1-3.16.72-6.48.55-9.57,1.7-.29.11-.73-.15-.89.31a.46.46,0,0,0,.13.42,1,1,0,0,0,1,0,9,9,0,0,1,2.41-.57A30.74,30.74,0,0,0,303.32,56,13.88,13.88,0,0,1,308.22,55.08Z"/><path class="cls-1" d="M314.9,41.69,312,47.81c-5.82.8-11.6,1.83-17.36,3-.44.09-1,.49-1.26-.09a1.29,1.29,0,0,1,.4-1.52,22.09,22.09,0,0,1,4-3.21c2.86-1.62,6.06-2.07,9.22-2.68,2.37-.46,4.73-1,7.1-1.53Z"/><path class="cls-1" d="M306.17,59.42q-2.35,5-4.72,9.89c-2.45.49-4.91,1-7.35,1.48-.55.12-.74,0-.76-.54-.06-1.24-.16-2.47-.18-3.7a1.34,1.34,0,0,1,.38-1c1.09-.8,1-1.91.8-3-.1-.73.05-1.19.82-1.28,3.47-.42,6.86-1.25,10.3-1.89A5.63,5.63,0,0,1,306.17,59.42Z"/><path class="cls-1" d="M378.83,41c7.19.19,14,1.6,20,5.88a8,8,0,0,1,.62.54,29.39,29.39,0,0,1-9.07-.48,19.41,19.41,0,0,1-8.68-4C380.8,42.17,379.73,41.7,378.83,41Z"/><path class="cls-1" d="M284.66,70.69c0-1.84.37-2.34,2.07-3,.8-.33,1.71-.32,2.38-1a4.22,4.22,0,0,0,.88-3.35c0-.94.24-1.34,1.16-1.35.2,0,.39-.13.58-.13.62,0,1.3-.7,1.82.1s.4,2.67-.19,3.13a2.09,2.09,0,0,0-.75,1.79,19,19,0,0,0,.1,2.38c.13,1.78.15,1.8-1.65,2.23-1.43.35-2.86.68-4.3,1C284.69,72.79,284.67,72.76,284.66,70.69Z"/><path class="cls-1" d="M298.59,75.05q-1.14,2.31-2.27,4.62a9.52,9.52,0,0,0-7.18-2.49,3.3,3.3,0,0,1-3.53-1.87c-.31-.75-.15-1.12.64-1.25,1.4-.3,2.81-.54,4.23-.7a28.71,28.71,0,0,0,4.7-.82c1.39-.3,1.78-.07,2,1.3a1.3,1.3,0,0,0,1.4,1.21Z"/><path class="cls-1" d="M401.56,49.07l2.89,3.26-8.06,1.54c-1.21.23-2.41.5-3.62.74-.67.14-1,0-.9-.81a9.73,9.73,0,0,0-.11-3.8c-.19-.68.16-1.06.81-.89,1.44.39,2.93,0,4.38.36S400,49.08,401.56,49.07Z"/><path class="cls-1" d="M445.48,86.38a4,4,0,0,1-2.73-1.49c-1.5-1.57-1.88-1.57-3.34,0a.65.65,0,0,1-.83.22c-1.66-.64-4-4-3.84-5.74A7.22,7.22,0,0,1,437.2,75c1.31-1.27,2.8-2.32,4.22-3.45h0c.83.08,1.37-.82,2.39-.66-1.54,1.28-3.06,2.38-4.38,3.72a8,8,0,0,0-1.84,3.92c-.45,1.84,2.67,4.49,4.47,4.19a19.38,19.38,0,0,1,4.17-.08C446,84,445.72,85.17,445.48,86.38Z"/><path class="cls-1" d="M436.64,46.68,438,41.15c.4-.32.89-.15,1.33-.24h7.86a2.73,2.73,0,0,1-.91,3.76l-.17.09a10.2,10.2,0,0,1-2.78.58C441.08,45.57,439,46.62,436.64,46.68Z"/><path class="cls-1" d="M448.13,70.2A62.06,62.06,0,0,1,447,78c-.11.75-.24,1.5-.37,2.25L444,79.63a3.19,3.19,0,0,1-1.9-5.24A10.16,10.16,0,0,1,448.13,70.2Z"/><path class="cls-1" d="M281.26,68.08a2.44,2.44,0,0,0,2-1.65c.11-.39.4-.32.64-.4,1.44-.47,2.68-1,2.89-2.87.07-.73,1.35-.81,2.14-.83.63,0,.51.69.53,1.12.07,2.17-.48,3-2.64,3.59a3.64,3.64,0,0,0-2.74,4.35l0,.11c.17.93,0,1.28-1,1.29s-2.28.63-3.48.8c-.64.09-.81-.09-1-.65a4.35,4.35,0,0,1,.46-4,12,12,0,0,0,1,2.59Z"/><path class="cls-1" d="M290.63,107.69c0,3.69,0,7.38.05,11.07a2.31,2.31,0,0,1-1,1.31c-.1.06-.3.1-.31.16-.27,2.51-1.93,4.48-2.79,6.8.19-1.85.34-3.71.59-5.55a101.6,101.6,0,0,1,2.33-11.17A6.87,6.87,0,0,1,290.63,107.69Z"/><path class="cls-1" d="M446.51,80.94c-.06.4-.11.8-.16,1.19-1.58,0-3.15.46-4.74.13-3-.64-4.35-3.17-2.69-5.93a7.53,7.53,0,0,1,3.43-3.15,8,8,0,0,1-.71,1.16,3.49,3.49,0,0,0,1.58,5.59C444.33,80.21,445.43,80.55,446.51,80.94Z"/><path class="cls-1" d="M450,64.43a29.29,29.29,0,0,1,8.06,1.1c2,.46,4.17.08,6.25,0a31.23,31.23,0,0,0,3.57-.81,3.72,3.72,0,0,0,.37,1.31,23.15,23.15,0,0,1-10.41,1.11,5.78,5.78,0,0,0-3.11.66,16.36,16.36,0,0,1-4.14,1l-.13-.76c2-1,4.27-1.09,6.46-1.31.45,0,1-.28,1.5,0a.46.46,0,0,0,.63-.16.54.54,0,0,0,.06-.25c0-.47-.33-.38-.68-.37a50.69,50.69,0,0,1-6.4-.41c-.67-.07-1.34-.17-2-.25A8.14,8.14,0,0,1,450,64.43Z"/><path class="cls-1" d="M490.88,40.93h.9a69.73,69.73,0,0,1-5.95,10.47A25.41,25.41,0,0,1,483,54.79c-.14-.25-.18-.59-.53-.68h0c.07-.6-.32-1-.53-1.53A87.26,87.26,0,0,0,488,45.23C489.1,43.85,489.43,42,490.88,40.93Z"/><path class="cls-1" d="M283.84,60.76l1.65-4.51c.72,1.35,1.5,2.54,3.36,2.22a.92.92,0,0,1,1.07.74.77.77,0,0,1,0,.26c0,.72.5,1.71-.6,2.08a24,24,0,0,1-2.88.67.46.46,0,0,1-.41-.16A4.18,4.18,0,0,0,283.84,60.76Z"/><path class="cls-1" d="M290.65,124.23c0,2.44,0,4.88,0,7.32,0,1-.22,1.4-1.25,1.27a10,10,0,0,0-1.55,0,60.3,60.3,0,0,1,2.29-8C290.26,124.57,290.31,124.29,290.65,124.23Z"/><path class="cls-1" d="M278.79,68.27a5,5,0,0,0-.71,5c.23.59,0,.86-.58.8a2,2,0,0,1-2-1.39,6.94,6.94,0,0,1-.26-2.36A2.08,2.08,0,0,1,277,68.41c.58-.15,1.17-.23,1.75-.34Z"/><path class="cls-1" d="M431.79,65.17v-.43a58,58,0,0,1,8.71-.92,59,59,0,0,1,8.61.47l-.06.85a59.66,59.66,0,0,0-6.26-.57,38.65,38.65,0,0,0-5.59.19C435.4,64.91,433.59,65,431.79,65.17Z"/><path class="cls-1" d="M353.38,104.54a3.78,3.78,0,0,0-.05-.75c2.31-1.16,4.7-2.22,5.87-4.77a23.76,23.76,0,0,0,1.61-4.56c.06-.28-.1-.65.41-.82a3.3,3.3,0,0,1-.29,2.12c-.4,1.2-.8,2.4-1.15,3.62a5.72,5.72,0,0,1-2.73,3.87A26.63,26.63,0,0,1,353.38,104.54Z"/><path class="cls-1" d="M443.72,107.53c1.32-.81,2.09-2.2,3.28-3.15a26.36,26.36,0,0,1,5.41-3.5l1.24.09c-2.26,2-5,3.46-7.27,5.46a6.69,6.69,0,0,1-2.51,1.3Z"/><path class="cls-1" d="M283.53,61.37c.49-.15.81.22,1.18.42.58.31,1.13.77,1,1.47A2.46,2.46,0,0,1,284.19,65c-.68.28-1.29.32-1.74-.39Z"/><path class="cls-1" d="M450.25,66c1.55-.23,3,.71,4.58.55l-4.43.82Z"/><path class="cls-1" d="M454.32,89.73a54.83,54.83,0,0,1-1.1-5.57,4.43,4.43,0,0,1,1.23,4.17A11,11,0,0,0,454.32,89.73Z"/><path class="cls-1" d="M275.07,57.93a8.14,8.14,0,0,1,1,2.9C274.78,60.18,275,59,275.07,57.93Z"/><path class="cls-1" d="M448.45,69v.48l-2,1-.18-.28C446.71,69.4,447.62,69.25,448.45,69Z"/><path class="cls-1" d="M443.27,107.83l.45-.3.15.2-.37.3Z"/><path class="cls-1" d="M448.33,70c0,.12,0,.27-.21.21C448.11,70.06,448.19,70,448.33,70Z"/><path class="cls-1" d="M276,60.83c.17,0,.2.1.21.22Z"/><path class="cls-1" d="M432,64.16c.43-1.68.87-3.36,1.3-5,1,1.2,1.28,1.26,2.66.28a17.27,17.27,0,0,1,10.15-3.54c1.13,0,1.74.44,1.76,1.53,0,.8.46,1,1.07.79a3.62,3.62,0,0,1,2.53.17,43.27,43.27,0,0,0,7.67,2c2.52.42,5.1.15,7.64.34l1,3.67a16.29,16.29,0,0,1-8.72.69c-3-.63-6.11-.75-9.14-1.27-1.67-.28-3.39-.2-5.09-.32A67.17,67.17,0,0,0,432,64.16Z"/><path class="cls-1" d="M473.31,85.31c.55,2.11,1.11,4.21,1.67,6.32a25.89,25.89,0,0,0-7.26,1.72,98.47,98.47,0,0,0-11.39,5.71c-.18-.69-.37-1.37-.56-2a39,39,0,0,1,3.73-3.77c.9-.74,2.14-1.36,2.55-2.65h0a.65.65,0,0,0,.74-.25h0a12.56,12.56,0,0,0,2.47-1.4A12.65,12.65,0,0,1,468,87.82a1.5,1.5,0,0,1,0,.3c-.06.42-.62,1,0,1.23a1.16,1.16,0,0,0,1.52-.58,6.85,6.85,0,0,1,2.64-3C472.58,85.62,473,85.48,473.31,85.31Z"/><path class="cls-1" d="M500.68,118.45v-3.08c1.74,1.89,3,2.21,5.12,1.41.77-.3,1-1,1.41-1.63C507,117.59,503.92,119.09,500.68,118.45Z"/><path class="cls-2" d="M479.79,57c-.38-.85-.56.07-.84.1-2.71,1.59-5.89,1.87-8.74,3.1a12.52,12.52,0,0,1-3.39.5c-2.55-.19-5.13.08-7.65-.34a43.27,43.27,0,0,1-7.67-2,3.62,3.62,0,0,0-2.53-.17c-.61.22-1.06,0-1.07-.79,0-1.09-.63-1.54-1.76-1.53A17.24,17.24,0,0,0,436,59.4c-1.38,1-1.64.92-2.66-.28-.21-.61-.52-.33-.92-.16-1.32.54-2.45,1.4-3.76,2-2.59,1.19-5.24,1.07-7.91,1.12a28.93,28.93,0,0,1-8-1.32,8.41,8.41,0,0,0-3-.15c-.31,0-.64.14-.8-.3a.72.72,0,0,1,.31-.92c1.9-1.41,3.76-2.44,6.41-2.1s5.09.79,7.63,1.28a9.32,9.32,0,0,0,5-.71,22.66,22.66,0,0,0,6.32-3.73.24.24,0,0,0,.22-.25v0h0c2.42-.89,4.55-2.41,7-3.18,3.44-1.07,6.89-1.47,10.13.5,1.34.81,2.33,2.12,3.61,3.06a25.52,25.52,0,0,0,8.64,4.32,3.44,3.44,0,0,0,1.88.07,6.92,6.92,0,0,0,2.13-.09A22.82,22.82,0,0,0,474,56.62c2.73-1.24,5.62-2.22,7.62-4.66a4.63,4.63,0,0,0,.74-.6A49.36,49.36,0,0,0,489.72,41c.52-.66.68-1.56,1.15-2.19,2-2.67,2.76-5.88,3.94-8.88a18.8,18.8,0,0,0,1.32-4.66,14,14,0,0,0-.87-5.7,10.89,10.89,0,0,0-2.15-3.73c-1.78-2.2-4.48-2.6-6.89-2.69a14.5,14.5,0,0,0-10.7,4c-2.21,2.08-4,4.61-6.93,5.9-.06,0-.07.19-.11.32,3.15-.27,5.89.33,8,3a7.34,7.34,0,0,0,4.82,2.55,16.83,16.83,0,0,0,5.1-.42c.36-.05.78-.48,1.07,0s0,.93-.31,1.31a2.77,2.77,0,0,1-.82.85c-1.64.89-3.23,2-5.11,2.28-2.79.44-5.55.39-8-1.35-1-.7-2-1.31-3.31-2.13.28.93.58,1.48.76,2.06.33,1.08-1.08.28-1.21,1a4.13,4.13,0,0,1-.27,5.07c.87.33,1,.87.62,1.72-.51,1.25-1.39.68-2.31.54a4.57,4.57,0,0,1-.11,4c-.29.63-.62.75-1.3.39a20.35,20.35,0,0,1-3.4-2.59,1.64,1.64,0,0,0-.06,2c.19.31.67.71,0,1.07a4.33,4.33,0,0,1-3.51-2.25A4.16,4.16,0,0,0,458,41.1a3.16,3.16,0,0,1,.27-2.85c.26,1.09-.25,2.07.32,2.89s.95,1.35,1.45,2a1.63,1.63,0,0,0,1.73.76c.71-.24,0-.87.05-1.33a3.84,3.84,0,0,0,0-.83c.22-2,.19-2,2-.77a7.54,7.54,0,0,1,1.76,1.57c.78.94,1.34.83,1.72-.29a1.79,1.79,0,0,0-.55-2.23,5.05,5.05,0,0,1-.81-1,.43.43,0,0,1,0-.63v0c.18-.14.56-.31.62-.24a3.72,3.72,0,0,0,2.3.8c.09,0,.15.25.25.44a2.18,2.18,0,0,0-1.57-2.5c-.38-.18-.62-.44-.48-.83s.53-.36.9-.22,1.09.66,1.41-.08c.59-1.37.43-2.47-.37-2.86a12,12,0,0,1-2.17-1.44c-.28-.22-.55-.38-.4-.74s.6-.32.94-.21.49.27.75.36c.48.17,1.17.51,1.43.07a1.53,1.53,0,0,0-.44-1.63,2.18,2.18,0,0,0-1.94-.72c-.46.07-1,.35-1.31-.11s0-1,.37-1.47a10.52,10.52,0,0,0-3.27.75c-.23.08-.47.46-.7.08s.17-.5.4-.56c1.34-.37,2.61-1.08,4.1-.78.55.12,1-.35,1.57-.85-3.08-.16-5.94-.41-8.49,1.41A3.25,3.25,0,0,1,462,25.41c4-.77,6.95-3.29,10.07-5.61,1.63-1.21,2.69-3,4.4-4.13,3.76-2.45,7.72-3.83,12.27-2.51A9.42,9.42,0,0,1,492.84,15a9.52,9.52,0,0,1,2.68,3.83,14,14,0,0,1,1.27,5,17.28,17.28,0,0,1-1.12,5.22,54,54,0,0,1-3.33,8.33,5.59,5.59,0,0,1-.68,1.25,3.12,3.12,0,0,0-.78,2.29c-1.45,1.09-1.78,2.92-2.85,4.3a86.21,86.21,0,0,1-6.11,7.37A29.08,29.08,0,0,1,466.4,59.2a9.55,9.55,0,0,1-4.58-1,24.07,24.07,0,0,1-7.92-5,9.65,9.65,0,0,0-7.8-3c-4.45.29-8.21,2.3-11.73,4.87l-.18.17h0l-5.27,3a2.91,2.91,0,0,0,1.86-.43c1.11-.53,2.48-.49,3.35-1.52a3.5,3.5,0,0,0,1.38-.68A15.19,15.19,0,0,1,443.08,52c2.3-.33,5.67.38,7.37,1.88-1.18-.39-2.35-.88-3.52-1.2A9.82,9.82,0,0,0,438.71,54,31.78,31.78,0,0,1,435,56.62c-.66.31-.34.8-.18,1.22.27.7.71.16.93,0a9.42,9.42,0,0,1,2.48-1.38,31.89,31.89,0,0,1,7.65-1.73c1.24-.09,2.55-.13,3.23.66.9,1,2.09.94,3,1.5a16,16,0,0,0,4.35,1.51,35.17,35.17,0,0,0,10,1.2,12,12,0,0,0,3.41-.47c2.3-.78,4.93-.71,6.8-2.61,1.93-.07,3.26-1.34,4.75-2.31.3-.2.64-.58,1-.07h0c-.76.77-1,1.91-1.94,2.57C480.3,56.84,480.17,57.23,479.79,57ZM485,29.29l-1.44.06a9.57,9.57,0,0,1-8.73-3.91,2.61,2.61,0,0,0-1.1-.87,10.47,10.47,0,0,0-4.5-.68,3.64,3.64,0,0,0-2.27.79c1.14.84,3.06-.15,3.68,1.74h.11a25.11,25.11,0,0,1,3.3,1c.34.07.67,0,1,.38a6.57,6.57,0,0,0,5.6,2.57c.35,0,.77-.2,1.09.18-2.4,1-4.46,0-6.06-1.41a10.18,10.18,0,0,0-4.41-2,3.74,3.74,0,0,0-2.63.26c.5,1,1.6.42,2.16.94a13.39,13.39,0,0,0,5.82,2.81,9.27,9.27,0,0,0,8.68-1.58l.29-.32A.46.46,0,0,0,485,29.29ZM415.88,58.86c3.62.12,7,1.76,10.46.08a8.57,8.57,0,0,1-3.77,0c-2.73-1-5.59-1-8.42-1.19a5,5,0,0,0-3.65,1.76,6.62,6.62,0,0,1,3.93.4,16.55,16.55,0,0,0,7.77,1.26A59.36,59.36,0,0,0,429,59.53a1.63,1.63,0,0,0,1.19-.91A19.34,19.34,0,0,1,415.88,58.86Z"/><path class="cls-1" d="M434.92,53.86a.23.23,0,0,1-.21.27h0C434.71,54,434.71,53.84,434.92,53.86Z"/><path class="cls-2" d="M338.78,51.11c-.08.23-.18.34-.43.19a50.89,50.89,0,0,0-6-2.77c-1.17-.55-2.4-1-3.6-1.45-.26-.11-.73-.18-.48-.61s.49-.14.81,0c2.85,1.44,5.8,2.69,8.78,3.85A1.4,1.4,0,0,1,338.78,51.11Z"/><path class="cls-2" d="M330.79,46c.75.33,1.43.67,2.13.93,1.82.67,3.65,1.31,5.47,2,.21.07.56,0,.47.38s-.35.24-.59.15L331,46.74c-.25-.09-.58-.11-.52-.51C330.54,46,330.67,46,330.79,46Z"/><path class="cls-2" d="M338,47.44a13.46,13.46,0,0,1-4.33-1,6.73,6.73,0,0,0-1.26-.27.55.55,0,0,1-.45-.62c0-.26.23-.31.44-.21A39.7,39.7,0,0,0,338,47.44Z"/><path class="cls-2" d="M359.29,69.2c.13-.14.33-.32.46-.11s-.15.25-.31.3Z"/><path class="cls-2" d="M462,90.59c-.41,1.29-1.65,1.91-2.55,2.65a39.79,39.79,0,0,0-3.7,3.76c-1,.7-1.36,1.82-2,2.74-.21.3-.28.77-.82.45a21.18,21.18,0,0,1,2.77-3.94c1.36-1.46,2.8-2.85,4.3-4.17A7.16,7.16,0,0,1,462,90.59Z"/><path class="cls-2" d="M462.77,90.35a.65.65,0,0,1-.74.25A.77.77,0,0,1,462.77,90.35Z"/><path class="cls-2" d="M456.33,99.06a98.47,98.47,0,0,1,11.39-5.71,26.25,26.25,0,0,1,7.3-1.72,13.43,13.43,0,0,1,1.9.09c.63.09,1.12.33,1,1-.15.87.38.92,1,1a68.14,68.14,0,0,1,8.9.92,7.37,7.37,0,0,1,5.49,5.36c.81,3,.9,6,1.37,9.06.27,1.74,1.43,3.23,2.47,4.68.34.46,1.05.23,1.49.67-1.12.31-1.6.09-2.33-.89a12.27,12.27,0,0,1-2.51-7.16c-.06-2.32-.77-4.52-1.1-6.79-.31-2.09-3.64-4.46-5.75-4.7-2.68-.31-5.36-.54-8.05-.67-.91,0-1.72-.22-1.43-1.47.09-.37-.18-.46-.49-.52a3.7,3.7,0,0,0-1.75,0,15.21,15.21,0,0,0-5.47.9A71.53,71.53,0,0,0,457,99.18a5.41,5.41,0,0,0-.62.55l-1.09.49-.16-.17Z"/><path class="cls-2" d="M443.5,108l.37-.3a6.69,6.69,0,0,0,2.51-1.3c2.29-2,5-3.42,7.27-5.46a5.48,5.48,0,0,1,1.54-.92l.16.17-.59.67-6.13,4.43a12.29,12.29,0,0,1-2.9,2c-.88.33-1,1.29-1.71,1.74-.25.16-.43.63-.77.38s0-.59.17-.88C443.52,108.46,443.48,108.22,443.5,108Z"/><path class="cls-2" d="M440.61,111.07l-.55-.44a15,15,0,0,1,1.24-1c.15-.09.34.16.33.38C441.6,110.71,440.77,110.47,440.61,111.07Z"/><path class="cls-1" d="M461.8,41.59a3.84,3.84,0,0,1,0,.83c-.09.46.66,1.09-.05,1.33A1.64,1.64,0,0,1,460,43c-.5-.66-1-1.34-1.45-2h2.23A.86.86,0,0,1,461.8,41.59Z"/><path class="cls-2" d="M308.22,55.08a13.89,13.89,0,0,0-4.9.89,30.82,30.82,0,0,1-7.68,1.37,9,9,0,0,0-2.41.57,1,1,0,0,1-1,0,.46.46,0,0,1-.13-.42c.16-.46.6-.2.89-.31,3.09-1.15,6.41-1,9.57-1.7,1.62-.38,3.27-.64,4.9-1,.58-.12.86,0,.77.64Z"/><path class="cls-2" d="M452.93,100.19c0,.41-.18.48-.51.25C452.55,100.27,452.69,100.12,452.93,100.19Z"/><path class="cls-2" d="M465.39,17.63c2.15-2.24,4.47-4.31,6.6-6.57a7.31,7.31,0,0,1-1.91,2.59c-1.11,1.23-2.37,2.33-3.6,3.45-.29.27-.57.72-1.1.5Z"/><path class="cls-2" d="M472,10.83l5.11-6.09.34.3a55.78,55.78,0,0,1-5.17,6Z"/><path class="cls-1" d="M466.4,59.21a.74.74,0,0,0,.07.38,35.17,35.17,0,0,1-10-1.2,16,16,0,0,1-4.35-1.51c-.94-.56-2.13-.47-3-1.5-.68-.79-2-.75-3.23-.66a31.89,31.89,0,0,0-7.65,1.73,9.42,9.42,0,0,0-2.48,1.38c-.22.17-.66.71-.93,0-.16-.42-.48-.91.18-1.22a31.61,31.61,0,0,0,3.76-2.52A9.82,9.82,0,0,1,447,52.76c1.17.32,2.34.81,3.52,1.2-1.7-1.5-5.07-2.21-7.37-1.88a15.19,15.19,0,0,0-7.57,3.64,3.5,3.5,0,0,1-1.38.68l.06-1.1h0l.18-.17c3.52-2.57,7.28-4.58,11.73-4.87a9.65,9.65,0,0,1,7.8,3,24.07,24.07,0,0,0,7.92,5A9.56,9.56,0,0,0,466.4,59.21Zm-15.52-4.92c2.76,2,5.51,4.1,9.18,4.1-3.51-.39-6.22-2.51-9.18-4.1Z"/><path class="cls-1" d="M481.69,52q-2.49-5.09-5-10.18c-.24-.5-.37-.86.47-.85,4.18,0,8.37,0,12.55.06a48.71,48.71,0,0,1-7.29,10.37A5.17,5.17,0,0,1,481.69,52Z"/><path class="cls-2" d="M450.88,54.29c3,1.59,5.67,3.74,9.18,4.1C456.39,58.39,453.64,56.33,450.88,54.29Z"/></g></g></g></g></svg>